<?xml version="1.0" encoding="utf-8"?>
<svg xmlns="http://www.w3.org/2000/svg" width="95" height="126" viewBox="0 0 95 126" fill="none">
<path d="M26.7066 28.0571C26.6151 27.8823 26.533 27.7347 26.4637 27.6146H76.2391C85.9529 27.6146 93.8337 35.5223 93.8592 45.3079V107.807C93.8592 117.593 85.9784 125.526 76.2649 125.526H26.4895C26.5589 125.406 26.6409 125.258 26.7325 125.084C27.0188 124.537 27.3987 123.725 27.778 122.653C28.5366 120.509 29.2922 117.33 29.2922 113.172V101.609V101.359H29.0422H15.2582C7.84639 101.359 1.82756 95.301 1.82756 87.8333V74.0208H14.7318C14.7237 74.0326 14.7155 74.0447 14.7072 74.057C14.489 74.3819 14.2054 74.8949 13.9243 75.6642C13.3623 77.2021 12.81 79.7651 12.81 83.901V86.375C12.81 89.0626 14.9624 91.2604 17.6633 91.2604H29.0422H29.2922V91.0104V62.1198H41.8263V91.0104V91.2604H42.0763H52.0846C54.7588 91.2604 56.938 89.0635 56.938 86.375V61.5833C56.938 58.8688 54.7588 56.6719 52.0588 56.6719H14.4306C7.01883 56.6719 1 50.6136 1 43.1458V14.526C1 7.0583 7.01883 1 14.4306 1H55.2139C62.6256 1 68.6445 7.0583 68.6445 14.526V20.2135H55.7084C55.8314 20.0308 55.9816 19.7895 56.1392 19.4939C56.5248 18.771 56.9564 17.7209 57.1424 16.4101L57.1426 16.4088C57.5187 13.6489 55.7197 10.8144 52.8629 10.7865H52.8605H18.3874C15.6865 10.7865 13.5082 13.0103 13.5082 15.6979V41.7135C13.5082 44.4281 15.6874 46.625 18.3874 46.625H29.0164H29.2664V46.375V39.9687C29.2664 35.8103 28.5107 32.6311 27.7521 30.4875C27.3729 29.4159 26.993 28.6035 26.7066 28.0571ZM41.8005 115.125V115.375H42.0505H74.015C78.0339 115.375 81.2993 112.084 81.2993 108.042V45.0469C81.2993 41.0042 78.0339 37.7135 74.015 37.7135H42.0505H41.8005V37.9635V46.3489V46.5989H42.0505H56.0156C63.4273 46.5989 69.4462 52.6572 69.4462 60.125V87.7812C69.4462 95.249 63.4273 101.307 56.0156 101.307H42.0505H41.8005V101.557V115.125Z" fill="#2F241C" stroke="white" stroke-width="0.5"/>
</svg>